<svg width="24" height="24" viewBox="0 0 24 24" fill="none" xmlns="http://www.w3.org/2000/svg">
<path fill-rule="evenodd" clip-rule="evenodd" d="M7.37891 0H15.9008C19.8223 0 23.0023 3.3585 23.0023 7.5V16.5C23.0023 20.6415 19.8223 24 15.9008 24H7.37891C3.45742 24 0.277344 20.6415 0.277344 16.5V7.5C0.277344 3.3585 3.45742 0 7.37891 0ZM15.9007 21.75C18.6419 21.75 20.8718 19.395 20.8718 16.5V7.5C20.8718 4.605 18.6419 2.25 15.9007 2.25H7.37878C4.63758 2.25 2.40769 4.605 2.40769 7.5V16.5C2.40769 19.395 4.63758 21.75 7.37878 21.75H15.9007Z" fill="#5F627E"/>
<path fill-rule="evenodd" clip-rule="evenodd" d="M5.95898 12C5.95898 8.6865 8.50274 6 11.6402 6C14.7776 6 17.3214 8.6865 17.3214 12C17.3214 15.3135 14.7776 18 11.6402 18C8.50274 18 5.95898 15.3135 5.95898 12ZM8.08925 12C8.08925 14.067 9.68284 15.75 11.64 15.75C13.5972 15.75 15.1908 14.067 15.1908 12C15.1908 9.9315 13.5972 8.25 11.64 8.25C9.68284 8.25 8.08925 9.9315 8.08925 12Z" fill="#5F627E"/>
<ellipse cx="17.7473" cy="5.54999" rx="0.75708" ry="0.7995" fill="#5F627E"/>
</svg>
