<svg width="15" height="14" viewBox="0 0 15 14" fill="none" xmlns="http://www.w3.org/2000/svg">
<path d="M9.93776 1.91544C7.76334 -0.258976 4.237 -0.258977 2.06259 1.91544C-0.111831 4.08986 -0.111831 7.6162 2.06259 9.79061C3.98884 11.7169 6.9763 11.9343 9.14363 10.4477L11.8546 13.48C12.3154 13.9976 13.1167 14.0189 13.6059 13.5297L13.6768 13.4588C14.1661 12.9695 14.1448 12.1683 13.6272 11.7074L10.5948 8.99648C12.0838 6.82679 11.864 3.84169 9.93776 1.91544ZM8.58584 8.43869C7.15829 9.86625 4.84206 9.86625 3.41451 8.43869C1.98696 7.01114 1.98696 4.69491 3.41451 3.26736C4.84206 1.83981 7.15829 1.83981 8.58584 3.26736C10.0158 4.69728 10.0134 7.01114 8.58584 8.43869Z" fill="#FEFDFE"/>
</svg>
