<svg width="13" height="13" viewBox="0 0 13 13" fill="none" xmlns="http://www.w3.org/2000/svg">
<g clip-path="url(#clip0_744_437)">
<path d="M12.5528 4.69852L8.57222 4.12009L6.79208 0.513136C6.72078 0.368723 6.58207 0.296387 6.44336 0.296387L6.44388 10.6723L10.0036 12.544C10.2891 12.6939 10.6223 12.4517 10.5678 12.1341L9.888 8.16935L12.7682 5.36173C12.9992 5.13668 12.8717 4.74493 12.5528 4.69852Z" fill="#FFB820"/>
<path d="M9.05159 7.8979C9.05159 7.8979 9.66554 11.4766 9.66761 11.4885C9.66554 11.4883 6.49286 10.6848 6.44334 10.6723C6.44282 10.6721 2.88254 12.544 2.88254 12.544C2.59709 12.6939 2.26393 12.4517 2.31837 12.1341L2.99818 8.16935L0.117956 5.36173C-0.113053 5.13668 0.0145072 4.74493 0.333408 4.69852L4.31397 4.12009L6.09411 0.513136C6.16541 0.368723 6.30412 0.296387 6.44282 0.296387L8.05522 4.831L11.6606 5.35499L9.05159 7.8979Z" fill="#FFD06A"/>
</g>
<defs>
<clipPath id="clip0_744_437">
<rect width="12.8856" height="12.8856" fill="white"/>
</clipPath>
</defs>
</svg>
