<svg width="24" height="20" viewBox="0 0 24 20" fill="none" xmlns="http://www.w3.org/2000/svg">
<path d="M23.6762 2.49014C22.8311 2.88164 21.9306 3.14114 20.9918 3.26714C21.9576 2.65814 22.6947 1.70114 23.0413 0.547641C22.1408 1.11464 21.1466 1.51514 20.087 1.73864C19.232 0.777141 18.0134 0.181641 16.684 0.181641C14.1047 0.181641 12.0282 2.39264 12.0282 5.10314C12.0282 5.49314 12.0594 5.86814 12.1361 6.22514C8.26294 6.02564 4.83573 4.06514 2.5334 1.07864C2.13145 1.81514 1.89568 2.65814 1.89568 3.56564C1.89568 5.26964 2.72656 6.78014 3.96508 7.65464C3.21657 7.63964 2.48227 7.41014 1.86017 7.04864C1.86017 7.06364 1.86017 7.08314 1.86017 7.10264C1.86017 9.49364 3.47507 11.4796 5.59275 11.9371C5.21353 12.0466 4.80022 12.0991 4.37128 12.0991C4.07302 12.0991 3.77191 12.0811 3.48927 12.0151C4.0929 13.9636 5.8058 15.3961 7.84253 15.4426C6.25746 16.7521 4.24488 17.5411 2.06612 17.5411C1.68405 17.5411 1.31761 17.5231 0.951172 17.4736C3.01489 18.8791 5.46066 19.6816 8.09818 19.6816C16.6712 19.6816 21.3582 12.1816 21.3582 5.68064C21.3582 5.46314 21.3511 5.25314 21.3412 5.04464C22.2658 4.35164 23.0427 3.48614 23.6762 2.49014Z" fill="#5F627E"/>
</svg>
